HIERARCHY
ROOT Hips
{
	OFFSET 0.000000 0.000000 0.000000
	CHANNELS 6 Xposition Yposition Zposition Zrotation Yrotation Xrotation 
	JOINT LHipJoint
	{
		OFFSET 0.000000 0.000000 0.000000
		CHANNELS 3 Zrotation Yrotation Xrotation
		JOINT LeftUpLeg
		{
			OFFSET 1.363060 -1.794630 0.839290
			CHANNELS 3 Zrotation Yrotation Xrotation
			JOINT LeftLeg
			{
				OFFSET 2.448110 -6.726130 0.000000
				CHANNELS 3 Zrotation Yrotation Xrotation
				JOINT LeftFoot
				{
					OFFSET 2.562200 -7.039590 0.000000
					CHANNELS 3 Zrotation Yrotation Xrotation
					JOINT LeftToeBase
					{
						OFFSET 0.157640 -0.433110 2.322550
						CHANNELS 3 Zrotation Yrotation Xrotation
						End Site
						{
							OFFSET 0.000000 0.000000 0.000000
						}
					}
				}
			}
		}
	}
	JOINT RHipJoint
	{
		OFFSET 0.000000 0.000000 0.000000
		CHANNELS 3 Zrotation Yrotation Xrotation
		JOINT RightUpLeg
		{
			OFFSET -1.305520 -1.794630 0.839290
			CHANNELS 3 Zrotation Yrotation Xrotation
			JOINT RightLeg
			{
				OFFSET -2.542530 -6.985550 0.000000
				CHANNELS 3 Zrotation Yrotation Xrotation
				JOINT RightFoot
				{
					OFFSET -2.568260 -7.056230 0.000000
					CHANNELS 3 Zrotation Yrotation Xrotation
					JOINT RightToeBase
					{
						OFFSET -0.164730 -0.452590 2.363150
						CHANNELS 3 Zrotation Yrotation Xrotation
						End Site
						{
							OFFSET 0.000000 0.000000 0.000000
						}
					}
				}
			}
		}
	}
}
MOTION
Frames: 16
Frame Time: 0.008333
2.110705 16.572039 -0.246233 168.041425 -85.685773 -143.225991 -9.025225 -1.292497 0.601119 -10.803286 -0.491342 -50.514846 -2.712279 0.259479 16.772562 0.829194 5.059482 3.685649 1.571500 0.000000 -30.060900 10.085308 -1.400839 -3.707767 6.375684 -7.639711 -14.792664 2.293614 -1.938233 31.036100 -0.516587 0.101132 -10.475292 0.061900 0.000000 -81.694900
1.977815 16.582754 -0.215436 165.740262 -85.632777 -140.757111 -8.951525 -1.232569 0.531338 -11.294189 -0.515742 -50.482005 -2.755929 0.298327 17.475440 0.830118 5.004278 3.133860 1.505599 0.000000 -29.734800 10.307268 -1.399799 -3.746369 5.847160 -7.970050 -16.162472 2.065027 -2.253352 33.647956 -0.475177 -0.016901 -8.881171 0.012300 -0.000001 -83.332400
1.846439 16.592443 -0.182699 164.333503 -85.530998 -139.138633 -8.886821 -1.167349 0.476618 -11.744882 -0.509012 -50.477279 -2.806689 0.330347 18.095825 0.827301 4.893064 2.491709 1.419300 -0.000000 -29.351100 10.505060 -1.375790 -3.762714 5.396336 -8.197532 -17.647588 1.811914 -2.548357 36.328255 -0.461529 -0.229859 -7.222708 -0.033100 0.000000 -84.369300
1.716812 16.600800 -0.148101 163.834867 -85.394319 -138.381496 -8.839377 -1.102895 0.436829 -12.140840 -0.470212 -50.530230 -2.860014 0.360728 18.670758 0.822448 4.736267 1.784512 1.318700 -0.000000 -28.911800 10.666283 -1.331034 -3.754139 5.048267 -8.299308 -19.221956 1.541650 -2.815358 39.024374 -0.483189 -0.578415 -5.575864 -0.082200 -0.000000 -84.744500
1.588974 16.607699 -0.112597 163.929765 -85.236986 -138.168036 -8.803228 -1.040900 0.412721 -12.491555 -0.426220 -50.644187 -2.913235 0.388846 19.209832 0.819923 4.571264 1.047399 1.216600 0.000000 -28.436899 10.797804 -1.265195 -3.722791 4.786017 -8.294976 -20.875638 1.265340 -3.053598 41.702771 -0.540440 -1.068579 -4.031422 -0.145001 -0.000000 -84.458200
1.463266 16.613217 -0.076629 164.512912 -85.070093 -138.397506 -8.778171 -0.983764 0.402806 -12.791840 -0.384152 -50.827366 -2.962606 0.417283 19.734563 0.822192 4.417272 0.303656 1.118900 0.000000 -27.949801 10.898489 -1.180001 -3.672231 4.614722 -8.192348 -22.585336 0.993139 -3.261928 44.321867 -0.633042 -1.716111 -2.673296 -0.232100 -0.000000 -83.581000
1.339737 16.617595 -0.040851 165.401372 -84.902452 -138.888800 -8.759865 -0.932031 0.406079 -13.044905 -0.359492 -51.076033 -3.005654 0.446089 20.251640 0.832250 4.298812 -0.425391 1.031300 0.000000 -27.480100 10.973147 -1.076830 -3.607586 4.524418 -8.013102 -24.337666 0.734521 -3.443106 46.850481 -0.757120 -2.517259 -1.576532 -0.349100 0.000000 -82.229300
1.218708 16.621216 -0.005789 166.460761 -84.741085 -139.514953 -8.745296 -0.886316 0.420715 -13.252844 -0.361955 -51.381734 -3.040539 0.475205 20.763827 0.851909 4.231344 -1.125139 0.956500 -0.000000 -27.053700 11.025336 -0.957996 -3.534229 4.506657 -7.777829 -26.118956 0.496591 -3.601225 49.260765 -0.907359 -3.456874 -0.795952 -0.494200 -0.000000 -80.542400
1.099983 16.624432 0.028220 167.596511 -84.590720 -140.180087 -8.731970 -0.846802 0.445208 -13.418232 -0.400107 -51.734992 -3.066591 0.503690 21.267264 0.882071 4.223019 -1.787964 0.894700 -0.000001 -26.689700 11.058304 -0.826161 -3.456799 4.552824 -7.504622 -27.923231 0.284208 -3.741013 51.529891 -1.077319 -4.504681 -0.362638 -0.656800 -0.000000 -78.656001
0.983829 16.627697 0.060995 168.756343 -84.454364 -140.840746 -8.719019 -0.813993 0.476583 -13.543050 -0.473155 -52.120764 -3.084007 0.530701 21.755803 0.922027 4.270811 -2.412453 0.843700 0.000000 -26.395000 11.073830 -0.684588 -3.378995 4.656373 -7.206876 -29.740815 0.099932 -3.866816 53.637852 -1.259820 -5.616545 -0.282200 -0.818400 0.000000 -76.684600
0.870203 16.631340 0.092521 169.915994 -84.332473 -141.474523 -8.705646 -0.788210 0.512399 -13.630073 -0.579866 -52.528924 -3.094059 0.555071 22.220469 0.970265 4.365721 -3.001692 0.800900 0.000000 -26.166700 11.073271 -0.535946 -3.302978 4.811034 -6.892178 -31.570885 -0.055222 -3.982366 55.569959 -1.446707 -6.734721 -0.536329 -0.955900 -0.000001 -74.711199
0.758905 16.635513 0.122951 171.089066 -84.223949 -142.094474 -8.692264 -0.769319 0.550402 -13.681591 -0.713614 -52.950042 -3.098729 0.575793 22.652346 1.024263 4.491981 -3.562274 0.762600 0.000000 -25.991900 11.057096 -0.383543 -3.228845 5.012954 -6.562112 -33.412398 -0.181349 -4.090041 57.314497 -1.628978 -7.793764 -1.084833 -1.047300 -0.000000 -72.791100
0.649992 16.640327 0.152518 172.296057 -84.126535 -142.726261 -8.679424 -0.757212 0.588195 -13.700857 -0.865060 -53.376541 -3.100359 0.592296 23.044679 1.080919 4.630563 -4.102349 0.725200 -0.000000 -25.851700 11.025527 -0.230308 -3.155357 5.257679 -6.214266 -35.264403 -0.279362 -4.191321 58.863297 -1.797045 -8.727035 -1.870224 -1.077000 -0.000000 -70.962200
0.543241 16.645624 0.181555 173.587296 -84.036901 -143.416671 -8.668288 -0.751655 0.624492 -13.689106 -1.025647 -53.810950 -3.101095 0.604868 23.396489 1.137296 4.762759 -4.630962 0.685700 0.000000 -25.725199 10.977831 -0.078792 -3.080149 5.544176 -5.840809 -37.131196 -0.350730 -4.286453 60.212303 -1.941440 -9.474781 -2.821899 -1.040400 -0.000000 -69.253100
0.438502 16.651096 0.210406 175.008625 -83.951338 -144.210153 -8.659950 -0.752169 0.658749 -13.647529 -1.186992 -54.259048 -3.102706 0.614372 23.711256 1.190822 4.872508 -5.155915 0.641800 0.000000 -25.593200 10.913453 0.068645 -2.999752 5.871102 -5.431900 -39.016125 -0.397394 -4.374945 61.360287 -2.053839 -9.991555 -3.862770 -0.945100 -0.000000 -67.693900
0.335513 16.656244 0.239393 176.599516 -83.867463 -145.143070 -8.655342 -0.757890 0.691561 -13.577272 -1.343541 -54.730490 -3.106235 0.622207 23.997697 1.239678 4.948624 -5.682437 0.592600 0.000000 -25.442701 10.832209 0.209811 -2.910119 6.236375 -4.977709 -40.921951 -0.421545 -4.455894 62.308817 -2.128068 -10.251224 -4.916888 -0.808801 0.000000 -66.320201
